HIERARCHY
ROOT root     
{
	OFFSET 0.0000 0.0000 0.0000
	CHANNELS 6 Xposition Yposition Zposition Zrotation Yrotation Xrotation
	JOINT pelvis   
	{
		OFFSET 0.0000 0.0000 0.0000
		CHANNELS 3 Zrotation Yrotation Xrotation
		JOINT thorax   
		{
			OFFSET 0.0000 23.0750 -5.0000
			CHANNELS 3 Zrotation Yrotation Xrotation
			JOINT rclavicle
			{
				OFFSET 0.0000 28.0009 0.0000
				CHANNELS 3 Zrotation Yrotation Xrotation
				JOINT rhumerus 
				{
					OFFSET -18.5725 5.5939 0.0000
					CHANNELS 3 Zrotation Yrotation Xrotation
					JOINT rradius  
					{
						OFFSET -24.8459 0.0000 0.0000
						CHANNELS 3 Zrotation Yrotation Xrotation
						JOINT rhand    
						{
							OFFSET -24.5477 0.0000 0.0000
							CHANNELS 3 Zrotation Yrotation Xrotation
							End Site
							{
								OFFSET -8.1826 0.0000 0.0000
							}
						}
					}
				}
			}
			JOINT lclavicle
			{
				OFFSET 0.0000 28.0009 0.0000
				CHANNELS 3 Zrotation Yrotation Xrotation
				JOINT lhumerus 
				{
					OFFSET 18.5725 5.5939 0.0000
					CHANNELS 3 Zrotation Yrotation Xrotation
					JOINT lradius  
					{
						OFFSET 24.8459 0.0000 0.0000
						CHANNELS 3 Zrotation Yrotation Xrotation
						JOINT lhand    
						{
							OFFSET 24.5477 0.0000 0.0000
							CHANNELS 3 Zrotation Yrotation Xrotation
							End Site
							{
								OFFSET 8.1826 0.0000 0.0000
							}
						}
					}
				}
			}
			JOINT head     
			{
				OFFSET 0.0000 35.2030 0.0000
				CHANNELS 3 Zrotation Yrotation Xrotation
				End Site
				{
					OFFSET 0.0000 11.7343 0.0000
				}
			}
		}
		JOINT rfemur   
		{
			OFFSET -8.2817 0.0000 0.0000
			CHANNELS 3 Zrotation Yrotation Xrotation
			JOINT rtibia   
			{
				OFFSET 0.0000 -43.3627 0.0000
				CHANNELS 3 Zrotation Yrotation Xrotation
				JOINT rfoot    
				{
					OFFSET 0.0000 -38.2947 0.0000
					CHANNELS 3 Zrotation Yrotation Xrotation
					JOINT rtoes    
					{
						OFFSET 0.0000 0.0000 16.6054
						CHANNELS 3 Zrotation Yrotation Xrotation
						End Site
						{
							OFFSET 0.0000 0.0000 5.5351
						}
					}
				}
			}
		}
		JOINT lfemur   
		{
			OFFSET 8.2817 0.0000 0.0000
			CHANNELS 3 Zrotation Yrotation Xrotation
			JOINT ltibia   
			{
				OFFSET 0.0000 -43.3627 0.0000
				CHANNELS 3 Zrotation Yrotation Xrotation
				JOINT lfoot    
				{
					OFFSET 0.0000 -38.2947 0.0000
					CHANNELS 3 Zrotation Yrotation Xrotation
					JOINT ltoes    
					{
						OFFSET 0.0000 0.0000 16.6054
						CHANNELS 3 Zrotation Yrotation Xrotation
						End Site
						{
							OFFSET 0.0000 0.0000 5.5351
						}
					}
				}
			}
		}
	}
}
MOTION
Frames: 19
Frame Time: .0333333
92.258 78.815 14.497 83.7082 -86.2259 -45.6377 0 -0 0 0.0229007 -7.39597 1.78936 26.1819 -8.59974 3.54638e-07 59.3796 7.23971 -30.5196 -0 19.629 -0 -24.2787 15.1156 -3.26947 -21.4932 10.063 2.14104e-05 -58.7625 2.05856 -24.556 8.08282e-08 -14.8698 -6.19385e-07 35.423 -8.13284 -2.60124 2.78909 1.22851 -40.9315 0.653527 -7.85947 -67.0765 -0 -0 51.7679 2.52395e-06 -9.95408 -8.96779 1.56705 -2.65394e-05 -51.0481 -5.67908 0.852292 -66.2541 -0 -0 49.1909 4.20878e-05 12.7525 -9.45292 -2.12881 -1.22132e-05 -36.4042 
92.329 78.639 14.544 83.5417 -86.1865 -44.908 0 -0 0 0.0310019 -7.43358 1.83401 26.2275 -8.82755 3.04889e-05 59.2405 6.29949 -31.4409 -1.03256e-07 18.6518 -6.28762e-07 -24.3358 14.9172 -3.2339 -21.5287 10.3325 9.64004e-06 -58.5111 2.73554 -25.0711 0 -14.1467 0 35.3582 -7.65973 -2.44473 2.76967 1.28921 -41.2126 0.781064 -8.01372 -67.9994 -0 -0 52.3505 3.79553e-06 -9.83206 -9.19131 1.58572 -3.45058e-06 -51.1428 -5.73291 0.72583 -67.1396 -0 -0 49.7543 -3.61365e-05 12.7547 -9.68081 -2.1798 -1.12263e-05 -36.3566 
92.404 78.464 14.592 83.36 -86.1348 -44.1534 0 -0 0 0.0298036 -7.4745 1.87891 26.2693 -9.05041 -8.16465e-05 59.0845 5.35797 -32.3675 -0 17.7384 -0 -24.4049 14.7015 -3.19598 -21.5504 10.5877 -4.1629e-05 -58.2479 3.40772 -25.5876 7.29114e-08 -13.4888 -6.16543e-07 35.2865 -7.21995 -2.29903 2.75472 1.33732 -41.5102 0.882818 -8.15451 -68.9342 -0 -0 52.934 -8.74726e-06 -9.7376 -9.40842 1.60686 -1.7885e-05 -51.2275 -5.77752 0.569202 -68.0295 -0 -0 50.2991 1.81023e-05 12.7741 -9.89268 -2.23056 1.20052e-05 -36.3134 
92.482 78.288 14.642 83.1643 -86.0548 -43.3711 0 -0 0 0.0190024 -7.52035 1.92627 26.3047 -9.26446 -2.51901e-05 58.9185 4.4178 -33.291 -0 16.8819 -0 -24.4869 14.4823 -3.15873 -21.5597 10.825 -1.53373e-05 -57.9776 4.0772 -26.1039 0 -12.8924 0 35.2049 -6.81634 -2.1649 2.74235 1.37474 -41.8213 0.956451 -8.28343 -69.8798 -0 -0 53.523 -3.21725e-06 -9.671 -9.6243 1.63206 2.38591e-05 -51.2902 -5.80995 0.379209 -68.9221 -0 -0 50.8309 -4.19548e-06 12.8177 -10.0902 -2.28268 -1.41415e-05 -36.2629 
92.563 78.11 14.695 82.9333 -85.9751 -42.5501 0 -0 0 0.000204012 -7.57107 1.98157 26.3386 -9.48353 -5.84774e-05 58.737 3.50588 -34.186 -0 16.0633 -0 -24.5888 14.2784 -3.12714 -21.5554 11.0614 1.24816e-05 -57.7002 4.71359 -26.6044 0 -12.3402 0 35.1146 -6.46142 -2.04635 2.73055 1.40341 -42.1428 1.00331 -8.40034 -70.8354 -0 -0 54.1224 6.95021e-06 -9.63121 -9.84522 1.66198 1.39916e-06 -51.3164 -5.82716 0.156474 -69.8182 -0 -0 51.3543 -3.33635e-05 12.8868 -10.2784 -2.33755 8.73818e-06 -36.1896 
92.647 77.928 14.749 82.6925 -85.8737 -41.7099 0 -0 0 -0.0283016 -7.63154 2.04152 26.3586 -9.67022 3.19292e-05 58.5585 2.57833 -35.0789 -0 15.3022 -0 -24.6965 14.1004 -3.10176 -21.5403 11.2583 8.10041e-06 -57.4254 5.37145 -27.0979 0 -11.8643 0 35.0144 -6.13581 -1.93717 2.71729 1.42519 -42.4668 1.02043 -8.50926 -71.8029 -0 -0 54.7373 9.45168e-06 -9.61712 -10.0758 1.69799 -1.14131e-05 -51.2985 -5.82755 -0.104363 -70.7222 -0 -0 51.8758 -8.0567e-05 12.9847 -10.4599 -2.39708 1.08986e-05 -36.0873 
92.734 77.741 14.806 82.4286 -85.7537 -40.8428 0 -0 0 -0.065703 -7.70287 2.10794 26.3657 -9.82052 2.57797e-05 58.3886 1.63909 -35.9648 -0 14.5925 -0 -24.8091 13.9597 -3.08495 -21.513 11.4129 5.57782e-05 -57.1595 6.05053 -27.5746 0 -11.4625 0 34.9097 -5.83754 -1.83692 2.70137 1.4411 -42.7869 1.00829 -8.6118 -72.7828 -0 -0 55.3744 6.03186e-06 -9.62692 -10.3223 1.7409 2.36517e-07 -51.2234 -5.809 -0.402549 -71.634 -0 -0 52.4026 5.84524e-05 13.1128 -10.6388 -2.46248 3.11643e-06 -35.9473 
92.823 77.546 14.863 82.12 -85.6273 -39.934 0 -0 0 -0.107205 -7.78117 2.19018 26.3634 -9.97389 -4.02017e-05 58.2158 0.739976 -36.7916 -0 13.9008 -0 -24.9417 13.8579 -3.0792 -21.4736 11.5733 6.86029e-05 -56.8964 6.6839 -28.0105 0 -11.0864 0 34.8063 -5.59529 -1.755 2.6825 1.451 -43.1089 0.973015 -8.7044 -73.7686 -0 -0 56.0361 2.5771e-06 -9.65876 -10.5925 1.79193 1.15275e-05 -51.0781 -5.76898 -0.727596 -72.554 -0 -0 52.9449 4.3036e-05 13.2655 -10.8236 -2.53499 1.47619e-05 -35.77 
92.912 77.34 14.919 81.7828 -85.4954 -38.9991 0 -0 0 -0.1506 -7.86598 2.28522 26.3467 -10.1027 -9.21873e-07 58.054 -0.150568 -37.5861 -7.1516e-08 13.243 -6.16069e-07 -25.0781 13.7957 -3.08246 -21.4248 11.7049 0.000167563 -56.6423 7.31676 -28.4069 0 -10.7623 0 34.7076 -5.3879 -1.68479 2.66015 1.45362 -43.4245 0.915573 -8.78672 -74.7615 -0 -0 56.727 3.67463e-06 -9.71152 -10.8902 1.85196 1.76872e-05 -50.8576 -5.70725 -1.07549 -73.4875 -0 -0 53.5147 -4.83955e-05 13.4403 -11.0183 -2.61506 1.18121e-06 -35.5604 
93.002 77.122 14.975 81.4077 -85.3527 -38.0299 0 -0 0 -0.194204 -7.95672 2.39504 26.3146 -10.2172 5.97795e-05 57.9023 -1.01766 -38.3314 -0 12.6122 -0 -25.2167 13.7639 -3.09285 -21.365 11.828 -4.07944e-05 -56.3979 7.92111 -28.7578 5.59999e-08 -10.467 -6.11373e-07 34.6209 -5.22396 -1.6291 2.63512 1.44872 -43.7348 0.838304 -8.85749 -75.7631 -0 -0 57.4522 8.96881e-07 -9.78407 -11.217 1.92132 1.10914e-05 -50.5637 -5.62446 -1.43927 -74.4334 -0 -0 54.1179 5.31862e-05 13.6306 -11.2267 -2.70299 -9.97485e-06 -35.3277 
93.092 76.889 15.026 80.9826 -85.2157 -37.0211 0 -0 0 -0.233006 -8.04741 2.52228 26.2708 -10.332 -3.35254e-05 57.7587 -1.84706 -39.0099 -0 12.0013 -0 -25.3602 13.7499 -3.10784 -21.2936 11.9568 2.66969e-05 -56.1601 8.47409 -29.0564 0 -10.1775 0 34.5509 -5.11275 -1.59099 2.60885 1.43448 -44.0398 0.746424 -8.91178 -76.7672 -0 -0 58.2148 -1.37476e-05 -9.87541 -11.5745 2.00053 1.16689e-05 -50.1952 -5.52176 -1.806 -75.397 -0 -0 54.7659 6.5095e-05 13.8293 -11.4538 -2.79859 1.30866e-05 -35.0837 
93.181 76.638 15.075 80.5255 -85.0913 -35.9925 0 -0 0 -0.2681 -8.14057 2.65861 26.2096 -10.4169 1.95759e-05 57.6376 -2.6718 -39.666 -6.13341e-08 11.43 -6.12867e-07 -25.481 13.7478 -3.12267 -21.2145 12.0561 0.000139456 -55.9378 9.02609 -29.3201 0 -9.92444 0 34.4965 -5.02597 -1.56129 2.58294 1.41107 -44.3338 0.638509 -8.95108 -77.7817 -0 -0 59.0221 4.18652e-05 -9.98506 -11.9591 2.08919 6.52255e-06 -49.7712 -5.40249 -2.17373 -76.3815 -0 -0 55.4628 -4.44715e-05 14.0342 -11.6988 -2.90143 2.19321e-05 -34.8411 
93.269 76.368 15.12 80.0583 -84.9569 -34.9553 0 -0 0 -0.2974 -8.23306 2.80189 26.1332 -10.4776 -1.06396e-05 57.5382 -3.48659 -40.3075 -5.83634e-08 10.8945 -6.12026e-07 -25.574 13.7509 -3.13515 -21.1298 12.1316 5.10924e-05 -55.7298 9.57202 -29.5526 0 -9.69845 0 34.4578 -4.96172 -1.53951 2.55966 1.37861 -44.619 0.517268 -8.97272 -78.804 -0 -0 59.8748 -1.63744e-05 -10.1124 -12.3656 2.18728 -1.78992e-06 -49.3017 -5.27014 -2.53325 -77.3872 -0 -0 56.2145 4.75075e-05 14.2374 -11.9636 -3.01086 1.43744e-05 -34.6155 
93.355 76.078 15.157 79.5541 -84.8465 -33.8973 0 -0 0 -0.314998 -8.31574 2.95599 26.0481 -10.5409 -7.73703e-06 57.4507 -4.26135 -40.9046 -0 10.3898 -0 -25.6477 13.7411 -3.14214 -21.0372 12.212 0.000122072 -55.5271 10.0664 -29.7602 0 -9.46826 0 34.4339 -4.93486 -1.53001 2.54058 1.33552 -44.8989 0.39158 -8.97033 -79.8328 -0 -0 60.771 2.70469e-05 -10.2575 -12.7926 2.29445 -9.07256e-06 -48.7928 -5.12663 -2.86868 -78.4162 -0 -0 57.0284 -8.79888e-06 14.4327 -12.251 -3.12582 7.03134e-07 -34.4133 
93.439 75.765 15.189 79.049 -84.734 -32.8416 0 -0 0 -0.322502 -8.38834 3.119 25.9576 -10.6127 6.96638e-05 57.3705 -4.99182 -41.4463 -0 9.92177 -0 -25.7034 13.7046 -3.14084 -20.9386 12.3119 -5.89031e-05 -55.33 10.4902 -29.9585 4.91472e-08 -9.21832 -6.09628e-07 34.4201 -4.94948 -1.534 2.52839 1.2841 -45.1742 0.263493 -8.94483 -80.8698 -0 -0 61.7094 -1.9794e-05 -10.4176 -13.2332 2.41015 4.1473e-06 -48.2619 -4.97713 -3.17563 -79.4683 -0 -0 57.903 6.80946e-05 14.6149 -12.56 -3.24553 6.14898e-06 -34.2438 
93.52 75.43 15.214 78.5393 -84.6489 -31.7933 0 -0 0 -0.321902 -8.45329 3.2802 25.8623 -10.665 -9.5909e-06 57.3096 -5.70543 -42.0064 -5.06682e-08 9.49655 -6.09998e-07 -25.7181 13.6614 -3.13269 -20.838 12.3885 0.000104298 -55.1417 10.9067 -30.1673 4.7917e-08 -8.9925 -6.0935e-07 34.4073 -4.9682 -1.53917 2.52357 1.2275 -45.4395 0.132609 -8.89931 -81.9182 -0 -0 62.6944 -6.58952e-05 -10.5935 -13.6814 2.53296 -1.60166e-05 -47.7268 -4.82601 -3.4535 -80.5443 -0 -0 58.838 3.84538e-05 14.7858 -12.8893 -3.36948 1.03393e-05 -34.1098 
93.598 75.073 15.233 78.0139 -84.5768 -30.7372 0 -0 0 -0.313597 -8.50959 3.43729 25.7633 -10.7004 -6.18992e-05 57.2596 -6.39678 -42.5979 -4.85531e-08 9.10917 -6.09498e-07 -25.6928 13.6193 -3.11978 -20.7429 12.4428 4.89336e-06 -54.9615 11.3182 -30.3976 0 -8.79451 0 34.3889 -4.98247 -1.54268 2.52653 1.1686 -45.6951 0.00283396 -8.83452 -82.9779 -0 -0 63.7183 -9.34277e-06 -10.7833 -14.1324 2.66247 -1.05072e-05 -47.2013 -4.67703 -3.69844 -81.6421 -0 -0 59.8287 -0.000100967 14.9434 -13.2372 -3.49701 2.60365e-05 -34.0105 
93.671 74.694 15.246 77.5015 -84.5184 -29.7028 0 -0 0 -0.299597 -8.55585 3.59648 25.6703 -10.7436 1.11248e-05 57.2114 -7.04239 -43.1608 -4.66772e-08 8.76509 -6.09055e-07 -25.6572 13.5583 -3.10116 -20.6483 12.5136 0.000123759 -54.7799 11.6676 -30.6559 4.5715e-08 -8.58782 -6.08852e-07 34.3623 -5.01507 -1.55148 2.53809 1.11027 -45.944 -0.117919 -8.75491 -84.047 -0 -0 64.7806 -2.53314e-05 -10.9817 -14.5847 2.79759 -2.53733e-05 -46.6843 -4.53496 -3.90612 -82.756 -0 -0 60.873 -7.73214e-05 15.0841 -13.6058 -3.62768 1.13164e-05 -33.9394 
93.739 74.292 15.253 77.0114 -84.4805 -28.7048 0 -0 0 -0.284291 -8.59471 3.7574 25.5886 -10.7919 -9.09919e-05 57.1655 -7.64133 -43.6944 -0 8.46765 -0 -25.6198 13.4793 -3.07831 -20.5564 12.6008 0.00013372 -54.5974 11.9557 -30.9509 0 -8.37747 0 34.3238 -5.06028 -1.56369 2.55818 1.05618 -46.1861 -0.226912 -8.66782 -85.1217 -0 -0 65.8778 8.31826e-05 -11.1831 -15.0412 2.93688 1.59855e-05 -46.1852 -4.40487 -4.07883 -83.8801 -0 -0 61.9639 3.60838e-05 15.2092 -13.9957 -3.7618 -6.61468e-06 -33.8894 
